<svg width="40" height="40" viewBox="0 0 40 40" fill="none" xmlns="http://www.w3.org/2000/svg">
<path d="M21.2891 20.5L25.3125 16.5156L26.1328 15.6953C26.25 15.5781 26.25 15.3828 26.1328 15.2266L25.2734 14.3672C25.1172 14.25 24.9219 14.25 24.8047 14.3672L20 19.2109L15.1562 14.3672C15.0391 14.25 14.8438 14.25 14.6875 14.3672L13.8281 15.2266C13.7109 15.3828 13.7109 15.5781 13.8281 15.6953L18.6719 20.5L13.8281 25.3438C13.7109 25.4609 13.7109 25.6562 13.8281 25.8125L14.6875 26.6719C14.8438 26.7891 15.0391 26.7891 15.1562 26.6719L20 21.8281L23.9844 25.8516L24.8047 26.6719C24.9219 26.7891 25.1172 26.7891 25.2734 26.6719L26.1328 25.8125C26.25 25.6562 26.25 25.4609 26.1328 25.3438L21.2891 20.5Z" fill="#231F20"/>
</svg>
