<svg width="16" height="16" viewBox="0 0 16 16" fill="none" xmlns="http://www.w3.org/2000/svg">
<path d="M8 1.82812C4.52148 1.82812 1.70312 4.64648 1.70312 8.125C1.70312 11.6035 4.52148 14.4219 8 14.4219C11.4785 14.4219 14.2969 11.6035 14.2969 8.125C14.2969 4.64648 11.4785 1.82812 8 1.82812ZM8 13.2031C5.18164 13.2031 2.92188 10.9434 2.92188 8.125C2.92188 5.33203 5.18164 3.04688 8 3.04688C10.793 3.04688 13.0781 5.33203 13.0781 8.125C13.0781 10.9434 10.793 13.2031 8 13.2031ZM9.54883 10.5625C9.70117 10.6641 9.87891 10.6387 9.98047 10.4863L10.4629 9.85156C10.5645 9.69922 10.5391 9.52148 10.3867 9.41992L8.71094 8.17578V4.57031C8.71094 4.41797 8.55859 4.26562 8.40625 4.26562H7.59375C7.41602 4.26562 7.28906 4.41797 7.28906 4.57031V8.75977C7.28906 8.83594 7.31445 8.9375 7.39062 8.98828L9.54883 10.5625Z" fill="#231F20" fill-opacity="0.57"/>
</svg>
