<svg width="24" height="24" viewBox="0 0 24 24" fill="none" xmlns="http://www.w3.org/2000/svg">
<rect x="0.5" y="0.5" width="23" height="23" rx="1.5" fill="white"/>
<path d="M16.8984 8.04688L15.7031 6.85156C15.4922 6.64062 15.2109 6.5 14.9062 6.5H10.875C10.2422 6.5 9.75 7.01562 9.75 7.625V8.75H7.875C7.24219 8.75 6.75 9.26562 6.75 9.875V17.375C6.75 18.0078 7.24219 18.5 7.875 18.5H13.125C13.7344 18.5 14.25 18.0078 14.25 17.375V16.25H16.125C16.7344 16.25 17.25 15.7578 17.25 15.125V8.84375C17.25 8.53906 17.1094 8.25781 16.8984 8.04688ZM12.9844 17.375H8.01562C7.92188 17.375 7.875 17.3281 7.875 17.2344V10.0156C7.875 9.94531 7.92188 9.875 8.01562 9.875H9.75V15.125C9.75 15.7578 10.2422 16.25 10.875 16.25H13.125V17.2344C13.125 17.3281 13.0547 17.375 12.9844 17.375ZM15.9844 15.125H11.0156C10.9219 15.125 10.875 15.0781 10.875 14.9844V7.76562C10.875 7.69531 10.9219 7.625 11.0156 7.625H13.5V9.6875C13.5 10.0156 13.7344 10.25 14.0625 10.25H16.125V14.9844C16.125 15.0781 16.0547 15.125 15.9844 15.125ZM16.125 9.125H14.625V7.625H14.8359C14.8828 7.625 14.9062 7.64844 14.9297 7.67188L16.0781 8.82031C16.1016 8.84375 16.125 8.86719 16.125 8.91406V9.125Z" fill="#231F20" fill-opacity="0.57"/>
<rect x="0.5" y="0.5" width="23" height="23" rx="1.5" stroke="#EEEEEE"/>
</svg>
