<svg width="24" height="24" viewBox="0 0 24 24" fill="none" xmlns="http://www.w3.org/2000/svg">
<path d="M20.7188 10.2812L19.9453 9.47266C19.5938 9.15625 19.0664 9.15625 18.75 9.47266L18.5391 9.68359L14.5664 5.71094L14.7773 5.5C15.0938 5.18359 15.0938 4.65625 14.7773 4.30469L13.9688 3.53125C13.6523 3.17969 13.125 3.17969 12.7734 3.53125L8.41406 7.89062C8.0625 8.20703 8.0625 8.76953 8.41406 9.08594L9.1875 9.89453C9.53906 10.2109 10.0664 10.2109 10.3828 9.89453L10.5938 9.68359L12 11.0547L9.15234 13.9375L8.94141 13.7266C8.48438 13.2695 7.78125 13.2695 7.35938 13.7266L3.31641 17.7695C2.85938 18.1914 2.85938 18.8945 3.31641 19.3516L4.89844 20.9336C5.35547 21.3906 6.05859 21.3906 6.48047 20.9336L10.5234 16.8906C10.9805 16.4688 10.9805 15.7656 10.5234 15.3086L10.3125 15.0977L13.1953 12.25L14.5664 13.6562L14.3555 13.8672C14.0391 14.1836 14.0391 14.7109 14.3555 15.0625L15.1641 15.8359C15.4805 16.1875 16.043 16.1875 16.3594 15.8359L20.7188 11.4766C21.0703 11.125 21.0703 10.5977 20.7188 10.2812Z" fill="#0C71E9"/>
</svg>
