<svg width="16" height="16" viewBox="0 0 16 16" fill="none" xmlns="http://www.w3.org/2000/svg">
<path d="M14.1191 6.11914L13.5352 5.53516C13.2051 5.17969 12.6973 5.10352 12.2656 5.25586L10.8691 3.85938C11.0215 3.42773 10.9453 2.91992 10.5898 2.58984L10.0059 2.00586C9.52344 1.52344 8.76172 1.52344 8.2793 2.00586L5.63867 4.62109C5.18164 5.10352 5.18164 5.86523 5.63867 6.34766L6.24805 6.93164C6.57812 7.28711 7.08594 7.38867 7.51758 7.21094L7.77148 7.49023L6.34961 8.91211C5.79102 8.35352 5.0293 8.42969 4.57227 8.88672L1.85547 11.6035C1.37305 12.0859 1.37305 12.873 1.85547 13.3301L2.79492 14.2695C3.25195 14.752 4.03906 14.752 4.52148 14.2695L7.23828 11.5527C7.69531 11.0957 7.77148 10.334 7.21289 9.77539L8.63477 8.35352L8.91406 8.60742C8.73633 9.03906 8.83789 9.54688 9.19336 9.87695L9.82812 10.5371C10.2852 10.9688 10.9961 10.9688 11.4531 10.5371L14.1191 7.8457C14.6016 7.36328 14.6016 6.60156 14.1191 6.11914ZM3.6582 13.4316L2.71875 12.4668L5.43555 9.75L6.375 10.6895L3.6582 13.4316ZM10.6406 9.62305L10.0566 9.01367L10.4375 8.6582L7.4668 5.6875L7.11133 6.06836L6.50195 5.48438L9.14258 2.84375L9.72656 3.45312L9.29492 3.85938L12.2656 6.83008L12.6719 6.39844L13.2812 6.98242L10.6406 9.62305Z" fill="#231F20" fill-opacity="0.57"/>
</svg>
