<svg width="24" height="24" viewBox="0 0 24 24" fill="none" xmlns="http://www.w3.org/2000/svg">
<path d="M20.7188 12.25C20.6836 7.43359 16.7812 3.53125 12 3.53125C9.57422 3.53125 7.35938 4.55078 5.77734 6.13281L4.19531 4.55078C3.94922 4.30469 3.49219 4.48047 3.49219 4.86719V9.29688C3.49219 9.54297 3.66797 9.71875 3.91406 9.71875H8.41406C8.80078 9.71875 8.97656 9.26172 8.73047 9.01562L7.00781 7.32812C8.27344 6.02734 10.0312 5.21875 12 5.21875C15.8672 5.21875 19.0312 8.38281 19.0312 12.25C19.0312 16.1523 15.8672 19.2812 12 19.2812C10.1719 19.2812 8.55469 18.6133 7.28906 17.5234C7.14844 17.3828 6.86719 17.3828 6.72656 17.5234L6.12891 18.1211C5.95312 18.2969 5.95312 18.5781 6.12891 18.7539C7.67578 20.125 9.75 21.0039 12 20.9688C16.7812 20.9688 20.7188 17.0664 20.7188 12.25ZM14.8125 15.4141L15.3398 14.7461C15.4453 14.5352 15.4102 14.2891 15.2344 14.1484L12.8438 12.3906V7.32812C12.8438 7.11719 12.6328 6.90625 12.4219 6.90625H11.5781C11.332 6.90625 11.1562 7.11719 11.1562 7.32812V13.2695L14.25 15.5195C14.4258 15.6602 14.707 15.625 14.8125 15.4141Z" fill="#231F20" fill-opacity="0.57"/>
</svg>
