<svg width="20" height="20" viewBox="0 0 20 20" fill="none" xmlns="http://www.w3.org/2000/svg">
<path d="M18.8594 17.7383L14.6055 13.4844C14.5 13.4141 14.3945 13.3438 14.2891 13.3438H13.832C14.9219 12.0781 15.625 10.3906 15.625 8.5625C15.625 4.55469 12.3203 1.25 8.3125 1.25C4.26953 1.25 1 4.55469 1 8.5625C1 12.6055 4.26953 15.875 8.3125 15.875C10.1406 15.875 11.793 15.207 13.0938 14.1172V14.5742C13.0938 14.6797 13.1289 14.7852 13.1992 14.8906L17.4531 19.1445C17.6289 19.3203 17.9102 19.3203 18.0508 19.1445L18.8594 18.3359C19.0352 18.1953 19.0352 17.9141 18.8594 17.7383ZM8.3125 14.1875C5.18359 14.1875 2.6875 11.6914 2.6875 8.5625C2.6875 5.46875 5.18359 2.9375 8.3125 2.9375C11.4062 2.9375 13.9375 5.46875 13.9375 8.5625C13.9375 11.6914 11.4062 14.1875 8.3125 14.1875Z" fill="#231F20"/>
</svg>
