<svg width="24" height="24" viewBox="0 0 24 24" fill="none" xmlns="http://www.w3.org/2000/svg">
<path d="M20.7188 12.25C20.6836 7.43359 16.7812 3.53125 12 3.53125C9.64453 3.53125 7.53516 4.48047 5.95312 5.95703L4.23047 4.23438C3.87891 3.88281 3.28125 4.12891 3.28125 4.62109V9.71875C3.28125 10.0352 3.52734 10.2812 3.84375 10.2812H8.94141C9.43359 10.2812 9.67969 9.68359 9.32812 9.33203L7.53516 7.53906C8.69531 6.44922 10.2773 5.78125 12 5.78125C15.5508 5.78125 18.4688 8.69922 18.4688 12.25C18.4688 15.8359 15.5508 18.7188 12 18.7188C10.4531 18.7188 9.08203 18.2266 7.95703 17.3477C7.64062 17.0664 7.14844 17.1016 6.83203 17.418L6.44531 17.8047C6.09375 18.1562 6.12891 18.7539 6.51562 19.0703C7.99219 20.2656 9.92578 21.0039 12 20.9688C16.7812 20.9688 20.7188 17.0664 20.7188 12.25ZM14.3555 15.0273L14.6719 14.5703C14.9883 14.2188 14.918 13.6914 14.5312 13.4102L13.125 12.2852V8.59375C13.125 8.13672 12.7383 7.75 12.2812 7.75H11.7188C11.2266 7.75 10.875 8.13672 10.875 8.59375V13.375L13.1602 15.168C13.5117 15.4492 14.0391 15.3789 14.3555 15.0273Z" fill="#0C71E9"/>
</svg>
