<svg width="24" height="24" viewBox="0 0 24 24" fill="none" xmlns="http://www.w3.org/2000/svg">
<path d="M22.125 3.25H6.375C5.74219 3.25 5.25 3.77734 5.25 4.375V7.75H10.875V5.5H17.625V16.75H22.125C22.7227 16.75 23.25 16.2578 23.25 15.625V4.375C23.25 3.77734 22.7227 3.25 22.125 3.25ZM8.90625 6.87109C8.90625 7.04688 8.73047 7.1875 8.58984 7.1875H7.53516C7.35938 7.1875 7.21875 7.04688 7.21875 6.87109V5.81641C7.21875 5.67578 7.35938 5.5 7.53516 5.5H8.58984C8.73047 5.5 8.90625 5.67578 8.90625 5.81641V6.87109ZM21.2812 14.1836C21.2812 14.3594 21.1055 14.5 20.9648 14.5H19.9102C19.7344 14.5 19.5938 14.3594 19.5938 14.1836V13.1289C19.5938 12.9883 19.7344 12.8125 19.9102 12.8125H20.9648C21.1055 12.8125 21.2812 12.9883 21.2812 13.1289V14.1836ZM21.2812 10.5273C21.2812 10.7031 21.1055 10.8438 20.9648 10.8438H19.9102C19.7344 10.8438 19.5938 10.7031 19.5938 10.5273V9.47266C19.5938 9.33203 19.7344 9.15625 19.9102 9.15625H20.9648C21.1055 9.15625 21.2812 9.33203 21.2812 9.47266V10.5273ZM21.2812 6.87109C21.2812 7.04688 21.1055 7.1875 20.9648 7.1875H19.9102C19.7344 7.1875 19.5938 7.04688 19.5938 6.87109V5.81641C19.5938 5.67578 19.7344 5.5 19.9102 5.5H20.9648C21.1055 5.5 21.2812 5.67578 21.2812 5.81641V6.87109ZM15.375 8.875H1.875C1.24219 8.875 0.75 9.40234 0.75 10V20.125C0.75 20.7578 1.24219 21.25 1.875 21.25H15.375C15.9727 21.25 16.5 20.7578 16.5 20.125V10C16.5 9.40234 15.9727 8.875 15.375 8.875ZM4.125 11.125C4.72266 11.125 5.25 11.6523 5.25 12.25C5.25 12.8828 4.72266 13.375 4.125 13.375C3.49219 13.375 3 12.8828 3 12.25C3 11.6523 3.49219 11.125 4.125 11.125ZM14.25 19H3V17.875L5.25 15.625L6.375 16.75L10.875 12.25L14.25 15.625V19Z" fill="#0C71E9"/>
</svg>
