<svg width="24" height="24" viewBox="0 0 24 24" fill="none" xmlns="http://www.w3.org/2000/svg">
<path d="M22.125 3.25H6.375C5.74219 3.25 5.25 3.74219 5.25 4.30469V7.1875H6.9375V4.9375H8.625V7.1875H10.3125V4.9375H18.1875V15.625H22.125C22.7227 15.625 23.25 15.168 23.25 14.6055V4.30469C23.25 3.74219 22.7227 3.25 22.125 3.25ZM21.5625 13.9375H19.875V11.9688H21.5625V13.9375ZM21.5625 10.2812H19.875V8.59375H21.5625V10.2812ZM21.5625 6.90625H19.875V4.9375H21.5625V6.90625ZM5.25 14.5C5.84766 14.5 6.375 14.0078 6.375 13.375C6.375 12.7773 5.84766 12.25 5.25 12.25C4.61719 12.25 4.125 12.7773 4.125 13.375C4.125 14.0078 4.61719 14.5 5.25 14.5ZM15.375 8.875H1.875C1.24219 8.875 0.75 9.40234 0.75 10V20.125C0.75 20.7578 1.24219 21.25 1.875 21.25H15.375C15.9727 21.25 16.5 20.7578 16.5 20.125V10C16.5 9.40234 15.9727 8.875 15.375 8.875ZM14.8125 17.3125L11.2617 13.7969C11.1562 13.6914 11.0156 13.6211 10.875 13.6211C10.6992 13.6211 10.5586 13.6914 10.4531 13.7969L6.9375 17.3125L5.63672 16.0469C5.53125 15.9414 5.39062 15.8711 5.25 15.8711C5.07422 15.8711 4.93359 15.9414 4.82812 16.0469L2.4375 18.4375V10.5625H14.8125V17.3125Z" fill="#231F20" fill-opacity="0.57"/>
</svg>
