<svg width="16" height="16" viewBox="0 0 16 16" fill="none" xmlns="http://www.w3.org/2000/svg">
<path d="M12.4941 4.11328L10.3613 2.00586C10.1328 1.77734 9.82812 1.625 9.52344 1.625H4.31836C3.6582 1.65039 3.125 2.18359 3.125 2.86914V13.4316C3.125 14.0918 3.6582 14.625 4.31836 14.625H11.6309C12.3164 14.625 12.875 14.0918 12.875 13.4316V4.97656C12.875 4.67188 12.7227 4.3418 12.4941 4.11328ZM9.59961 2.94531L11.5547 4.90039H9.59961V2.94531ZM11.6562 13.4316H4.31836V2.86914H8.38086V5.50977C8.38086 5.83984 8.66016 6.11914 8.99023 6.11914H11.6562V13.4316ZM8.40625 7.10938C8.40625 7.00781 8.30469 6.90625 8.20312 6.90625H7.79688C7.66992 6.90625 7.59375 7.00781 7.59375 7.10938V7.74414C6.98438 7.74414 6.50195 8.25195 6.50195 8.88672C6.50195 9.39453 6.83203 9.82617 7.28906 9.97852L8.43164 10.334C8.58398 10.3594 8.66016 10.4863 8.66016 10.6387C8.66016 10.8418 8.5332 10.9688 8.35547 10.9688H7.64453C7.54297 10.9688 7.41602 10.9434 7.31445 10.8926C7.23828 10.8418 7.13672 10.8418 7.06055 10.918L6.78125 11.1973C6.67969 11.2734 6.67969 11.4258 6.78125 11.502C7.00977 11.6797 7.28906 11.7812 7.59375 11.7812V12.3906C7.59375 12.5176 7.66992 12.5938 7.79688 12.5938H8.20312C8.30469 12.5938 8.40625 12.5176 8.40625 12.3906V11.7812C8.99023 11.7812 9.47266 11.2734 9.47266 10.6387C9.47266 10.1309 9.14258 9.67383 8.68555 9.54688L7.54297 9.19141C7.39062 9.16602 7.31445 9.03906 7.31445 8.88672C7.31445 8.68359 7.44141 8.53125 7.61914 8.53125H8.33008C8.43164 8.53125 8.55859 8.58203 8.66016 8.63281C8.73633 8.68359 8.83789 8.68359 8.91406 8.60742L9.19336 8.32812C9.29492 8.25195 9.29492 8.09961 9.19336 8.02344C8.96484 7.8457 8.68555 7.74414 8.40625 7.74414V7.10938ZM5.35938 4.46875H7.39062C7.49219 4.46875 7.59375 4.39258 7.59375 4.26562V3.85938C7.59375 3.75781 7.49219 3.65625 7.39062 3.65625H5.35938C5.23242 3.65625 5.15625 3.75781 5.15625 3.85938V4.26562C5.15625 4.39258 5.23242 4.46875 5.35938 4.46875ZM7.59375 5.89062V5.48438C7.59375 5.38281 7.49219 5.28125 7.39062 5.28125H5.35938C5.23242 5.28125 5.15625 5.38281 5.15625 5.48438V5.89062C5.15625 6.01758 5.23242 6.09375 5.35938 6.09375H7.39062C7.49219 6.09375 7.59375 6.01758 7.59375 5.89062Z" fill="#231F20" fill-opacity="0.57"/>
</svg>
