<svg width="24" height="24" viewBox="0 0 24 24" fill="none" xmlns="http://www.w3.org/2000/svg">
<path d="M6.375 5.5C4.51172 5.5 3 7.01172 3 8.875V15.625C3 17.4883 4.51172 19 6.375 19H9.32812C9.53906 19 9.75 18.8242 9.75 18.5781V17.7344C9.75 17.5234 9.53906 17.3125 9.32812 17.3125H6.375C5.42578 17.3125 4.6875 16.5742 4.6875 15.625V8.875C4.6875 7.96094 5.42578 7.1875 6.375 7.1875H9.32812C9.53906 7.1875 9.75 7.01172 9.75 6.76562V5.92188C9.75 5.71094 9.53906 5.5 9.32812 5.5H6.375ZM14.4961 6.20312L13.793 6.90625C13.6172 7.04688 13.6172 7.32812 13.793 7.50391L17.7656 11.3359H9.04688C8.80078 11.3359 8.625 11.5469 8.625 11.7578V12.7422C8.625 12.9883 8.80078 13.1641 9.04688 13.1641H17.7656L13.793 17.0312C13.6172 17.207 13.6172 17.4883 13.793 17.6289L14.4961 18.332C14.6367 18.5078 14.918 18.5078 15.0938 18.332L20.8594 12.5664C21.0352 12.3906 21.0352 12.1445 20.8594 11.9688L15.0938 6.20312C14.918 6.02734 14.6367 6.02734 14.4961 6.20312Z" fill="#231F20" fill-opacity="0.57"/>
</svg>
