<svg width="20" height="20" viewBox="0 0 20 20" fill="none" xmlns="http://www.w3.org/2000/svg">
<path d="M11.4688 10L14.8438 6.65625C15.0312 6.46875 15.0312 6.125 14.8438 5.9375L14.0625 5.15625C13.875 4.96875 13.5312 4.96875 13.3438 5.15625L10 8.53125L6.625 5.15625C6.4375 4.96875 6.09375 4.96875 5.90625 5.15625L5.125 5.9375C4.9375 6.125 4.9375 6.46875 5.125 6.65625L8.5 10L5.125 13.375C4.9375 13.5625 4.9375 13.9062 5.125 14.0938L5.90625 14.875C6.09375 15.0625 6.4375 15.0625 6.625 14.875L10 11.5L13.3438 14.875C13.5312 15.0625 13.875 15.0625 14.0625 14.875L14.8438 14.0938C15.0312 13.9062 15.0312 13.5625 14.8438 13.375L11.4688 10Z" fill="#0C71E9"/>
</svg>
