<?xml version="1.0" encoding="UTF-8"?>
<svg width="512px" height="512px" viewBox="0 0 512 512" version="1.1" xmlns="http://www.w3.org/2000/svg" xmlns:xlink="http://www.w3.org/1999/xlink">
    <title>Chainverse_Circle</title>
    <defs>
        <path d="M10.054556,9.88328596 C3.43349125,16.352001 0.123894648,24.1645988 0.123894648,33.3199637 L0.123894648,33.3199637 C0.123894648,38.0650271 0.999766177,42.5314942 2.75338075,46.7197371 L2.75338075,46.7197371 C4.50624672,50.9090957 7.07996152,54.6346233 10.4748995,57.8959477 L10.4748995,57.8959477 C13.5329637,60.824742 17.179434,63.1319951 21.413936,64.818451 L21.413936,64.818451 C25.6469407,66.5049069 29.8713365,67.3485067 34.0871232,67.3485067 L34.0871232,67.3485067 C41.2116269,67.3485067 47.73949,65.2447144 53.6699637,61.0375018 L53.6699637,61.0375018 C55.0339277,60.0707839 56.2938352,59.0393454 57.4504348,57.9439302 L57.4504348,57.9439302 C62.4724725,53.1869642 59.0861436,44.7736548 52.1472947,44.7736548 L52.1472947,44.7736548 L52.1203448,44.7736548 C49.9856887,44.7736548 47.9423628,45.6522187 46.4953032,47.211465 L46.4953032,47.211465 C45.2949101,48.5040178 43.9388064,49.5908779 42.4243721,50.4731614 L42.4243721,50.4731614 C40.0363122,51.8627951 37.4064517,52.5579839 34.5347909,52.5579839 L34.5347909,52.5579839 C28.9393193,52.5579839 24.3511,50.7789106 20.7705073,47.2200201 L20.7705073,47.2200201 C17.1895402,43.6615015 15.3984952,39.102045 15.3984952,33.5416505 L15.3984952,33.5416505 C15.3984952,28.2044306 17.1139308,23.7751592 20.5462991,20.2530925 L20.5462991,20.2530925 C23.9779189,16.7321416 28.3801091,14.9709223 33.7513725,14.9709223 L33.7513725,14.9709223 C39.112904,14.9709223 43.3679927,16.8095088 46.5151413,20.485938 L46.5151413,20.485938 C47.9341281,22.1433811 49.9782026,23.1443191 52.1678814,23.1443191 L52.1678814,23.1443191 L52.4459894,23.1443191 C59.2830275,23.1443191 62.7614353,14.8954149 57.8973539,10.1209669 L57.8973539,10.1209669 C56.608625,8.8551951 55.1810292,7.67348573 53.6145667,6.57509488 L53.6145667,6.57509488 C47.533997,2.31246053 40.9877931,0.180771404 33.9752063,0.180771404 L33.9752063,0.180771404 C24.6490461,0.180771404 16.675995,3.41531488 10.054556,9.88328596" id="path-1"></path>
        <path d="M6.62069043,6.53529541 C5.25710069,7.50238523 3.99756749,8.53382371 2.84096791,9.62923891 L2.84096791,9.62923891 C-2.18106983,14.3862049 1.20488481,22.7991424 8.1437337,22.7991424 L8.1437337,22.7991424 L8.1714322,22.7991424 C10.3053397,22.7991424 12.3486656,21.9205785 13.7960995,20.3613322 L13.7960995,20.3613322 C14.995744,19.0687794 16.3525963,17.9819193 17.8670306,17.0996358 L17.8670306,17.0996358 C20.2547163,15.7092582 22.8845767,15.0148133 25.7558632,15.0148133 L25.7558632,15.0148133 C31.3513348,15.0148133 35.9395541,16.7942586 39.5205211,20.3524052 L39.5205211,20.3524052 C43.1018625,23.9112957 44.8925332,28.4707522 44.8925332,34.0311467 L44.8925332,34.0311467 C44.8925332,39.3687386 43.1770976,43.797638 39.7451036,47.3197047 L39.7451036,47.3197047 C36.3134839,50.8406555 31.9112937,52.6018749 26.5396559,52.6018749 L26.5396559,52.6018749 C21.1781244,52.6018749 16.9230357,50.7636603 13.7758871,47.0864873 L13.7758871,47.0864873 C12.3569003,45.429788 10.3128258,44.4284781 8.12314697,44.4284781 L8.12314697,44.4284781 L7.84503905,44.4284781 C1.00837517,44.4284781 -2.47078118,52.6773823 2.39367454,57.4525742 L2.39367454,57.4525742 C3.68240346,58.7176021 5.1103735,59.8996834 6.67646173,60.9980743 L6.67646173,60.9980743 C12.7570314,65.2607086 19.3036096,67.3923977 26.3154478,67.3923977 L26.3154478,67.3923977 C35.6419824,67.3923977 43.6150334,64.1574823 50.2360981,57.6895112 L50.2360981,57.6895112 C56.8575372,51.2211682 60.1675081,43.4081983 60.1675081,34.2532054 L60.1675081,34.2532054 C60.1675081,29.5077701 59.2920108,25.041303 57.538022,20.8530601 L57.538022,20.8530601 C55.7847817,16.6633295 53.2110669,12.9381739 49.8165033,9.67722144 L49.8165033,9.67722144 C46.7580647,6.74805517 43.1115944,4.44080204 38.8774668,2.75434619 L38.8774668,2.75434619 C34.644462,1.06789033 30.4193176,0.224662403 26.2042795,0.224662403 L26.2042795,0.224662403 C19.0790272,0.224662403 12.5515384,2.32808275 6.62069043,6.53529541" id="path-3"></path>
    </defs>
    <g id="Logo" stroke="none" stroke-width="1" fill="none" fill-rule="evenodd">
        <g id="Artboard" transform="translate(-222.000000, -109.000000)">
            <g id="Mask" transform="translate(222.000000, 109.000000)">
                <g id="Group-4"></g>
                <g id="Group" transform="translate(66.000000, 66.000000)">
                    <g id="Logo" transform="translate(2.000000, 101.000000)">
                        <g id="text" transform="translate(0.000000, 107.967213)" fill="#FFFFFF">
                            <path d="M22.2125774,1.03618403 C26.4679884,1.03618403 30.541464,2.74483342 34.2499436,4.8804569 C34.6757098,5.12406557 34.6757098,5.612789 34.432254,5.97876679 L31.1495406,10.6769878 C30.8453147,11.104715 30.4806938,11.1657113 30.0549277,10.8607298 C28.2314481,9.51805817 25.4952908,8.29775568 22.2733476,8.29775568 C3.12287294,8.29775568 3.12287294,38.3199831 22.2733476,38.3199831 C26.2252829,38.3199831 28.6568391,37.0993041 30.1160729,35.8790016 C30.4806938,35.5740201 30.9060849,35.6353929 31.1495406,36.0009942 L34.4930242,40.6393485 C34.7364799,41.0045732 34.6757098,41.4929201 34.3107137,41.7376584 C31.0280003,44.2998794 27.5018311,45.5819313 22.2125774,45.5819313 C7.56059433,45.5819313 0.265550547,34.4147139 0.265550547,23.3088694 C0.265550547,12.1420286 7.56059433,1.03618403 22.2125774,1.03618403" id="Fill-1"></path>
                            <path d="M17.2273245,22.8210496 L21.665421,18.427057 C22.0300419,18.0607027 22.3950379,18.122452 22.7596588,18.427057 L27.1977553,22.8210496 C27.5623762,23.1870274 27.5623762,23.613625 27.1977553,23.9803558 L22.7596588,28.3739719 C22.3950379,28.6789534 22.0300419,28.7399497 21.665421,28.3739719 L17.2273245,23.9803558 C16.8627036,23.6753743 16.8627036,23.1260311 17.2273245,22.8210496" id="Fill-3"></path>
                            <path d="M44.3410519,1.95135442 L50.0560718,1.95135442 C50.542233,1.95135442 50.8464589,2.25671243 50.8464589,2.74430629 L50.8464589,18.1827706 C50.8464589,19.2204607 51.5149305,19.8910435 52.5483982,19.8910435 L69.4496271,19.8910435 C70.4830947,19.8910435 71.1519415,19.2204607 71.1519415,18.1827706 L71.1519415,2.74430629 C71.1519415,2.25671243 71.5165624,1.95135442 71.9423286,1.95135442 L77.6569733,1.95135442 C78.1431345,1.95135442 78.4469853,2.25671243 78.4469853,2.74430629 L78.4469853,43.8731313 C78.4469853,44.3614782 78.1431345,44.6664597 77.6569733,44.6664597 L71.9423286,44.6664597 C71.5165624,44.6664597 71.1519415,44.3614782 71.1519415,43.8731313 L71.1519415,28.4346669 C71.1519415,27.3973534 70.4830947,26.7263941 69.4496271,26.7263941 L52.5483982,26.7263941 C51.5149305,26.7263941 50.8464589,27.3973534 50.8464589,28.4346669 L50.8464589,43.8731313 C50.8464589,44.3614782 50.542233,44.6664597 50.0560718,44.6664597 L44.3410519,44.6664597 C43.8548907,44.6664597 43.55104,44.3614782 43.55104,43.8731313 L43.55104,2.74430629 C43.55104,2.25671243 43.8548907,1.95135442 44.3410519,1.95135442" id="Fill-5"></path>
                            <path d="M85.5596811,43.9344664 L104.770926,1.89069699 C104.892841,1.58496245 105.317857,1.34135378 105.682853,1.34135378 C106.047849,1.34135378 106.41247,1.58496245 106.53401,1.89069699 L125.745255,43.9344664 C125.927566,44.3614405 125.745255,44.6660455 125.259094,44.6660455 L119.300994,44.6660455 C118.814832,44.6660455 118.328296,44.3614405 118.145986,43.9344664 L116.443671,40.2121861 C116.01828,39.2964886 115.045207,38.6861491 114.01174,38.6861491 L101.730918,38.6861491 C101.244757,38.6861491 101.062446,38.3811676 101.244757,37.953817 L103.737458,32.5838837 C103.919769,32.1569096 104.345535,31.8519281 104.831696,31.8519281 L110.911337,31.8519281 C111.944804,31.8519281 112.309425,31.2415886 111.884034,30.2652713 L106.41247,18.3054786 C106.169014,17.8171317 105.925934,17.57277 105.682853,17.57277 C105.439398,17.57277 105.196692,17.8171317 104.953236,18.3054786 L93.1589507,43.9344664 C92.9766403,44.3614405 92.4904791,44.6660455 92.0647129,44.6660455 L86.0462174,44.6660455 C85.5596811,44.6660455 85.3773706,44.3614405 85.5596811,43.9344664" id="Fill-7"></path>
                            <path d="M133.647588,1.95135442 L139.362608,1.95135442 C139.848769,1.95135442 140.152995,2.25671243 140.152995,2.74430629 L140.152995,43.8731313 C140.152995,44.3614782 139.848769,44.6664597 139.362608,44.6664597 L133.647588,44.6664597 C133.161427,44.6664597 132.857576,44.3614782 132.857576,43.8731313 L132.857576,2.74430629 C132.857576,2.25671243 133.161427,1.95135442 133.647588,1.95135442" id="Fill-9"></path>
                            <path d="M149.392908,2.74483342 C149.392908,2.25648652 149.696759,1.95150502 150.18292,1.95150502 L151.095223,1.95150502 C151.520614,1.95150502 152.067545,2.19549022 152.371396,2.50084823 L175.656116,27.5804929 C175.960342,27.8854744 176.142653,28.0074669 176.386108,28.0074669 C176.629189,28.0074669 176.811124,27.7024855 176.811124,27.092146 L176.811124,2.74483342 C176.811124,2.25648652 177.11535,1.95150502 177.601511,1.95150502 L183.316531,1.95150502 C183.802693,1.95150502 184.106918,2.25648652 184.106918,2.74483342 L184.106918,43.8725288 C184.106918,44.3612522 183.802693,44.6666103 183.316531,44.6666103 L182.465374,44.6666103 C181.979213,44.6666103 181.431906,44.4222485 181.128056,44.0562708 L157.843335,18.9152533 C157.59988,18.6106483 157.356799,18.4882792 157.113718,18.4882792 C156.870638,18.4882792 156.688327,18.7932607 156.688327,19.4032237 L156.688327,43.8725288 C156.688327,44.3612522 156.384477,44.6666103 155.89794,44.6666103 L150.18292,44.6666103 C149.696759,44.6666103 149.392908,44.3612522 149.392908,43.8725288 L149.392908,2.74483342 Z" id="Fill-11"></path>
                            <path d="M191.705025,1.95135442 L197.723896,1.95135442 C198.149662,1.95135442 198.636198,2.25671243 198.818134,2.68330999 L210.612419,28.3126744 C210.855875,28.8010213 211.09858,29.0450065 211.342036,29.0450065 C211.585117,29.0450065 211.828572,28.8010213 212.071653,28.3126744 L223.804793,2.68330999 C223.987479,2.25671243 224.47364,1.95135442 224.959426,1.95135442 L230.917902,1.95135442 C231.404438,1.95135442 231.586373,2.25671243 231.404438,2.68330999 L212.192818,44.7270794 C212.010883,45.0934337 211.706657,45.2760461 211.342036,45.2760461 C210.97704,45.2760461 210.612419,45.0934337 210.430109,44.7270794 L191.218864,2.68330999 C191.036178,2.25671243 191.218864,1.95135442 191.705025,1.95135442" id="Fill-13"></path>
                            <path d="M237.544024,20.6850873 C237.544024,20.1967403 237.847499,19.8917589 238.334036,19.8917589 L264.293393,19.8917589 C264.779929,19.8917589 265.084155,20.1967403 265.084155,20.6850873 L265.084155,25.9326515 C265.084155,26.4206219 264.779929,26.7263564 264.293393,26.7263564 L244.352024,26.7263168 L244.352024,37.8313168 L264.293393,37.832201 C264.779929,37.832201 265.084155,38.137559 265.084155,38.6251528 L265.084155,43.8730936 C265.084155,44.3614405 264.779929,44.6660455 264.293393,44.6660455 L238.334036,44.6660455 C237.847499,44.6660455 237.544024,44.3614405 237.544024,43.8730936 L237.544024,20.6850873 Z M237.544024,7.99258593 L237.544024,2.74502168 C237.544024,2.25667478 237.847499,1.95131676 238.334036,1.95131676 L264.293393,1.95131676 C264.779929,1.95131676 265.084155,2.25667478 265.084155,2.74502168 L265.084155,7.99258593 C265.084155,8.48055632 264.779929,8.78516129 264.293393,8.78516129 L238.334036,8.78516129 C237.847499,8.78516129 237.544024,8.48055632 237.544024,7.99258593 L237.544024,7.99258593 Z" id="Fill-15"></path>
                            <path d="M280.64724,18.9764002 C280.64724,20.0140903 281.315712,20.7460459 282.34918,20.7460459 L286.787276,20.7460459 C296.02809,20.7460459 295.96732,8.8472495 286.787276,8.8472495 L282.34918,8.8472495 C281.315712,8.8472495 280.64724,9.57920508 280.64724,10.6165187 L280.64724,18.9764002 Z M273.351821,43.8730559 L273.351821,2.25663712 C273.351821,2.07289519 273.473362,1.95127911 273.655672,1.95127911 L285.084962,1.95127911 C286.787276,1.95127911 287.821119,1.95127911 288.54961,2.01189889 C303.019658,3.35494701 305.268904,20.5020607 294.690772,25.8102447 C293.718074,26.2989682 293.535389,27.0922966 294.081945,27.9466213 L305.025823,43.9942955 C305.330049,44.4227757 305.147739,44.6660078 304.661202,44.6660078 L297.548094,44.6660078 C297.061933,44.6660078 296.575397,44.4227757 296.271171,43.9942955 L286.23997,29.0449311 C285.632268,28.1906065 284.598425,27.6416398 283.564958,27.6416398 L282.34918,27.6416398 C281.315712,27.6416398 280.64724,28.312599 280.64724,29.3499126 L280.64724,43.8730559 C280.64724,44.3614029 280.342639,44.6660078 279.856853,44.6660078 L274.141833,44.6660078 C273.655672,44.6660078 273.351821,44.3614029 273.351821,43.8730559 L273.351821,43.8730559 Z" id="Fill-17"></path>
                            <path d="M309.767733,38.5028967 L314.20583,35.0253546 C314.570826,34.7806164 314.996217,34.7806164 315.300067,35.1473472 C317.975079,38.259288 322.048555,39.2356053 325.99974,39.2356053 C329.222059,39.2356053 334.025151,38.0153028 334.025151,33.9876645 C334.025151,25.8107719 310.37581,26.6650966 310.37581,12.6909199 C310.37581,4.33103839 317.306608,0.18216055 324.966648,0.18216055 C330.194756,0.18216055 335.300949,2.56176922 339.31403,5.91769519 C339.679026,6.2230532 339.679026,6.71064707 339.375175,7.0163816 L335.666695,11.2266323 C335.300949,11.59261 334.876308,11.59261 334.572458,11.2876286 C331.8363,8.84702359 328.432047,7.38235939 324.723192,7.38235939 C321.075858,7.38235939 317.549313,8.66403469 317.549313,12.9352816 C317.549313,20.2578496 341.198655,19.2815323 341.198655,34.2316497 C341.198655,42.5309115 333.052078,46.4361806 325.757035,46.4361806 C319.738164,46.4361806 313.536983,44.3615535 309.646193,39.6012066 C309.342342,39.2356053 309.402737,38.8086312 309.767733,38.5028967" id="Fill-19"></path>
                            <path d="M349.222828,2.74483342 C349.222828,2.25648652 349.526678,1.95150502 350.01284,1.95150502 L375.972572,1.95150502 C376.458358,1.95150502 376.762959,2.25648652 376.762959,2.74483342 L376.762959,7.99277419 C376.762959,8.47999154 376.458358,8.78572607 375.972572,8.78572607 L358.220936,8.78572607 C357.186343,8.78572607 356.517871,9.45706187 356.517871,10.494752 L356.517871,18.1832977 C356.517871,19.2206113 357.186343,19.8915706 358.220936,19.8915706 L371.595996,19.8915706 C372.081782,19.8915706 372.385257,20.1969286 372.385257,20.6845225 L372.385257,25.9328398 C372.385257,26.4211867 372.081782,26.7257916 371.595996,26.7257916 L358.220936,26.7257916 C357.186343,26.7257916 356.517871,27.397504 356.517871,28.434441 L356.517871,36.1229868 C356.517871,37.1606769 357.186343,37.8320127 358.220936,37.8320127 L375.972572,37.8320127 C376.458358,37.8320127 376.762959,38.1373707 376.762959,38.6257176 L376.762959,43.8725288 C376.762959,44.3612522 376.458358,44.6666103 375.972572,44.6666103 L350.01284,44.6666103 C349.526678,44.6666103 349.222828,44.3612522 349.222828,43.8725288 L349.222828,2.74483342 Z" id="Fill-21"></path>
                            <path d="M24.5083761,63.542216 L32.0401234,63.542216 C32.0401234,65.0230705 31.4365483,66.2926972 30.2301483,67.3514724 C29.0728896,68.3665713 27.7198159,68.8737443 26.1716776,68.8737443 C24.5597682,68.8737443 23.1665562,68.3100933 21.9920418,67.1824148 C20.8171522,66.0551129 20.2297075,64.679684 20.2297075,63.0568812 C20.2297075,62.3113709 20.3823831,61.5937231 20.6877343,60.9024317 C20.9927104,60.2107638 21.4117244,59.5977887 21.944401,59.0635063 C22.496209,58.5100214 23.1406726,58.0886951 23.8781672,57.7991509 C24.6156617,57.5099833 25.3801652,57.3653995 26.1716776,57.3653995 C26.7527453,57.3653995 27.3180577,57.4437157 27.8676149,57.6007247 C28.4171721,57.7577337 28.938595,57.995318 29.4318836,58.3138543 C29.8467711,58.5928558 30.2230209,58.9121451 30.5598826,59.2694629 C30.9556388,59.6911657 31.2242279,60.1057146 31.3660249,60.5127332 L30.105607,60.5127332 C29.7248557,59.8703894 29.1704219,59.3624635 28.4426806,58.9904613 C28.0765592,58.8040838 27.7089373,58.6643947 27.34019,58.5713942 C26.9710677,58.4783937 26.5816886,58.4317051 26.1716776,58.4317051 C25.5658517,58.4317051 24.978407,58.5356247 24.4093433,58.744217 C23.8402796,58.9528093 23.3252338,59.2672038 22.8634557,59.6892831 C22.4020527,60.1109859 22.0333055,60.6241832 21.7575891,61.2292514 C21.4814975,61.8350727 21.3434517,62.4491774 21.3434517,63.0715655 C21.3434517,64.4100954 21.8243612,65.5377739 22.7869303,66.4538479 C23.7243662,67.3514724 24.8673701,67.8002847 26.2155672,67.8002847 C27.2265274,67.8002847 28.1579612,67.4986919 29.0106189,66.8955063 C29.8629015,66.2926972 30.4282139,65.5110409 30.7065562,64.5497845 L24.5083761,64.5497845 L24.5083761,63.542216 Z" id="Fill-23"></path>
                            <path d="M39.963388,63.9319898 L44.2566865,63.9319898 L42.1248546,58.8286329 L39.963388,63.9319898 Z M36.7253143,68.6753933 L41.5092755,57.5492167 L42.7400586,57.5492167 L47.4951352,68.6753933 L46.2936118,68.6753933 L44.6892049,64.9395583 L39.5312447,64.9395583 L37.9193352,68.6753933 L36.7253143,68.6753933 Z" id="Fill-25"></path>
                            <polygon id="Fill-27" points="52.707526 68.6752427 52.707526 57.5490661 54.414717 57.5490661 58.4660603 67.0200592 62.5027737 57.5490661 64.2099648 57.5490661 64.2099648 68.6752427 63.103723 68.6752427 63.103723 58.7772755 58.9349658 68.6752427 57.9900275 68.6752427 53.8137678 58.7772755 53.8137678 68.6752427"></polygon>
                            <polygon id="Fill-29" points="70.3971912 68.6752427 70.3971912 57.5490661 76.4562002 57.5490661 76.4562002 58.5566346 71.503433 58.5566346 71.503433 62.5643173 76.2948967 62.5643173 76.2948967 63.5711327 71.503433 63.5711327 71.503433 67.6676742 76.4562002 67.6676742 76.4562002 68.6752427"></polygon>
                            <polygon id="Fill-31" points="90.3979978 68.6752427 90.3979978 57.5490661 96.0248635 57.5490661 96.0248635 58.5566346 91.5042396 58.5566346 91.5042396 62.5790016 95.8560575 62.5790016 95.8560575 63.585817 91.5042396 63.585817 91.5042396 68.6752427"></polygon>
                            <path d="M106.959364,58.4316298 C105.655057,58.4316298 104.536811,58.8924907 103.603876,59.8142126 C102.670942,60.7355579 102.204662,61.8511877 102.204662,63.1599725 C102.204662,64.4299757 102.678069,65.5203786 103.626009,66.4323109 C104.573198,67.3442433 105.684691,67.8002094 106.959364,67.8002094 C108.263671,67.8002094 109.379666,67.3404781 110.307349,66.4213919 C111.235407,65.5015526 111.699436,64.3855463 111.699436,63.0714902 C111.699436,61.7969688 111.229405,60.7050598 110.288968,59.7957631 C109.348906,58.8864664 108.238913,58.4316298 106.959364,58.4316298 M106.944734,57.3653242 C108.531885,57.3653242 109.907091,57.9195621 111.069602,59.027285 C112.231737,60.1346314 112.81318,61.4829508 112.81318,63.0714902 C112.81318,64.6747139 112.238114,66.0426124 111.087608,67.1751856 C109.937476,68.3073823 108.556644,68.8732924 106.944734,68.8732924 C105.376714,68.8732924 104.013887,68.3224432 102.856629,67.2192385 C101.679488,66.0919365 101.090918,64.7387224 101.090918,63.1599725 C101.090918,61.551854 101.663358,60.1843321 102.808988,59.0566536 C103.954243,57.9289751 105.332825,57.3653242 106.944734,57.3653242" id="Fill-33"></path>
                            <path d="M118.516608,68.6752427 L118.516608,57.5490661 L121.154108,57.5490661 C121.373931,57.5490661 121.593754,57.5517017 121.813577,57.5565965 C122.0334,57.566386 122.211584,57.5739164 122.348129,57.5780582 C122.519186,57.5780582 122.678989,57.5897303 122.828288,57.6115685 C122.977212,57.6337832 123.151645,57.6710587 123.351962,57.7256542 C123.6937,57.7990756 124.01143,57.9195621 124.304402,58.0859841 C124.861462,58.3996256 125.288729,58.8288588 125.586578,59.3729307 C125.884426,59.9170026 126.033726,60.5175526 126.033726,61.1745806 C126.033726,62.086513 125.712244,62.8719344 125.070031,63.5312216 C124.427818,64.1908852 123.657313,64.5203406 122.758515,64.5203406 L125.87955,68.6752427 L124.502468,68.6752427 L120.736219,63.630623 L121.065954,63.630623 L121.359301,63.630623 L121.542362,63.630623 L121.689035,63.630623 L121.806074,63.630623 L121.908483,63.630623 L121.989135,63.630623 C122.194328,63.630623 122.345878,63.6178213 122.44341,63.593724 C122.829413,63.5496711 123.176028,63.4608123 123.484005,63.3290301 C123.933029,63.1230735 124.284896,62.817339 124.538855,62.4133326 C124.792814,62.0093263 124.919982,61.5612671 124.919982,61.0717906 C124.919982,60.6835981 124.826951,60.3093369 124.641639,59.9459947 C124.455953,59.5837821 124.203119,59.2931084 123.883138,59.0751031 C123.563157,58.8570978 123.164024,58.7057366 122.685366,58.6229022 C122.396895,58.5788493 121.962501,58.5566346 121.381058,58.5566346 L119.62285,58.5566346 L119.62285,68.6752427 L118.516608,68.6752427 Z" id="Fill-35"></path>
                            <polygon id="Fill-37" points="139.579805 68.6752427 139.579805 57.5490661 145.20667 57.5490661 145.20667 58.5566346 140.686047 58.5566346 140.686047 62.5790016 145.037864 62.5790016 145.037864 63.585817 140.686047 63.585817 140.686047 68.6752427"></polygon>
                            <path d="M150.756223,57.5491414 L151.862465,57.5491414 L151.862465,64.3069288 C151.862465,64.7877453 151.895476,65.2147194 151.961498,65.5897337 C152.02752,65.965501 152.168941,66.3247014 152.386514,66.6677115 C152.603711,67.011098 152.905311,67.2848283 153.290938,67.490785 C153.676941,67.6971181 154.092204,67.8002847 154.536726,67.8002847 C154.941861,67.8002847 155.324113,67.7133085 155.683107,67.5389796 C156.042101,67.3646507 156.339949,67.1187829 156.577028,66.7994936 C156.813731,66.4817104 156.983663,66.0844814 157.086447,65.6085597 C157.15472,65.2655497 157.188856,64.8317982 157.188856,64.3069288 L157.188856,57.5491414 L158.3026,57.5491414 L158.3026,64.3069288 C158.3026,64.9888072 158.256085,65.5377739 158.163429,65.9542054 C158.036262,66.5133381 157.80556,67.0159928 157.470949,67.4617929 C157.136338,67.9079695 156.706446,68.2551213 156.181272,68.5024952 C155.656473,68.7498691 155.108041,68.8737443 154.536726,68.8737443 C153.96016,68.8737443 153.425608,68.7604116 152.931944,68.535629 C152.438656,68.3100933 152.011389,67.9791319 151.650144,67.5427448 C151.288524,67.1067342 151.042068,66.5961726 150.910024,66.0129426 C150.807615,65.5720372 150.756223,65.0034915 150.756223,64.3069288 L150.756223,57.5491414 Z" id="Fill-39"></path>
                            <polygon id="Fill-41" points="164.481949 68.6752427 164.481949 57.5490661 165.976444 57.5490661 172.189254 66.7779566 172.189254 57.5490661 173.302999 57.5490661 173.302999 68.6752427 172.189254 68.6752427 165.588191 58.887596 165.588191 68.6752427"></polygon>
                            <polygon id="Fill-43" points="179.70986 69.6827359 181.035925 66.7778813 182.142167 66.7778813 180.823605 69.6827359"></polygon>
                            <polygon id="Fill-45" points="195.600617 68.6752427 195.600617 57.5490661 201.659251 57.5490661 201.659251 58.5566346 196.706859 58.5566346 196.706859 62.5643173 201.498322 62.5643173 201.498322 63.5711327 196.706859 63.5711327 196.706859 67.6676742 201.659251 67.6676742 201.659251 68.6752427"></polygon>
                            <path d="M209.810291,63.9319898 L214.102839,63.9319898 L211.971757,58.8286329 L209.810291,63.9319898 Z M206.571842,68.6753933 L211.356178,57.5492167 L212.586961,57.5492167 L217.341288,68.6753933 L216.139764,68.6753933 L214.535357,64.9395583 L209.378147,64.9395583 L207.766238,68.6753933 L206.571842,68.6753933 Z" id="Fill-47"></path>
                            <path d="M222.554241,68.6752427 L222.554241,57.5490661 L225.191741,57.5490661 C225.411564,57.5490661 225.631386,57.5517017 225.851209,57.5565965 C226.071032,57.566386 226.249216,57.5739164 226.386137,57.5780582 C226.556818,57.5780582 226.716996,57.5897303 226.865921,57.6115685 C227.014845,57.6337832 227.188903,57.6710587 227.38997,57.7256542 C227.731708,57.7990756 228.048313,57.9195621 228.342035,58.0859841 C228.89872,58.3996256 229.326362,58.8288588 229.62421,59.3729307 C229.922059,59.9170026 230.070983,60.5175526 230.070983,61.1745806 C230.070983,62.086513 229.749877,62.8719344 229.107664,63.5312216 C228.465451,64.1908852 227.694946,64.5203406 226.796523,64.5203406 L229.917182,68.6752427 L228.539726,68.6752427 L224.774227,63.630623 L225.103962,63.630623 L225.396934,63.630623 L225.579994,63.630623 L225.726668,63.630623 L225.844082,63.630623 L225.946491,63.630623 L226.027143,63.630623 C226.232336,63.630623 226.383511,63.6178213 226.481418,63.593724 C226.867046,63.5496711 227.214036,63.4608123 227.521638,63.3290301 C227.970287,63.1230735 228.322529,62.817339 228.576488,62.4133326 C228.830072,62.0093263 228.957239,61.5612671 228.957239,61.0717906 C228.957239,60.6835981 228.864583,60.3093369 228.678897,59.9459947 C228.493585,59.5837821 228.240752,59.2931084 227.920771,59.0751031 C227.600789,58.8570978 227.201657,58.7057366 226.722998,58.6229022 C226.434903,58.5788493 226.000134,58.5566346 225.419066,58.5566346 L223.660483,58.5566346 L223.660483,68.6752427 L222.554241,68.6752427 Z" id="Fill-49"></path>
                            <polygon id="Fill-51" points="235.562354 68.6752427 235.562354 57.5490661 237.05685 57.5490661 243.26966 66.7779566 243.26966 57.5490661 244.383404 57.5490661 244.383404 68.6752427 243.26966 68.6752427 236.668596 58.887596 236.668596 68.6752427"></polygon>
                            <polygon id="Fill-53" points="258.625564 68.6752427 258.625564 57.5490661 264.252054 57.5490661 264.252054 58.5566346 259.731805 58.5566346 259.731805 62.5790016 264.083623 62.5790016 264.083623 63.585817 259.731805 63.585817 259.731805 68.6752427"></polygon>
                            <path d="M275.18633,58.4316298 C273.882397,58.4316298 272.763776,58.8924907 271.831217,59.8142126 C270.897908,60.7355579 270.431628,61.8511877 270.431628,63.1599725 C270.431628,64.4299757 270.90541,65.5203786 271.852974,66.4323109 C272.800539,67.3442433 273.912032,67.8002094 275.18633,67.8002094 C276.490637,67.8002094 277.606632,67.3404781 278.53469,66.4213919 C279.462372,65.5015526 279.926776,64.3855463 279.926776,63.0714902 C279.926776,61.7969688 279.456746,60.7050598 278.516309,59.7957631 C277.575872,58.8864664 276.466254,58.4316298 275.18633,58.4316298 M275.1717,57.3653242 C276.758851,57.3653242 278.134057,57.9195621 279.296567,59.027285 C280.459078,60.1346314 281.03977,61.4829508 281.03977,63.0714902 C281.03977,64.6747139 280.46508,66.0426124 279.314949,67.1751856 C278.164067,68.3073823 276.783609,68.8732924 275.1717,68.8732924 C273.604055,68.8732924 272.241228,68.3224432 271.083594,67.2192385 C269.906454,66.0919365 269.317884,64.7387224 269.317884,63.1599725 C269.317884,61.551854 269.890699,60.1843321 271.036329,59.0566536 C272.181208,57.9289751 273.560165,57.3653242 275.1717,57.3653242" id="Fill-55"></path>
                            <path d="M286.744137,68.6752427 L286.744137,57.5490661 L289.381636,57.5490661 C289.601459,57.5490661 289.821282,57.5517017 290.041105,57.5565965 C290.260928,57.566386 290.439112,57.5739164 290.576032,57.5780582 C290.746714,57.5780582 290.906892,57.5897303 291.055816,57.6115685 C291.204741,57.6337832 291.379174,57.6710587 291.579865,57.7256542 C291.921603,57.7990756 292.238584,57.9195621 292.531931,58.0859841 C293.088615,58.3996256 293.516257,58.8288588 293.814106,59.3729307 C294.111955,59.9170026 294.260879,60.5175526 294.260879,61.1745806 C294.260879,62.086513 293.939773,62.8719344 293.29756,63.5312216 C292.655347,64.1908852 291.884841,64.5203406 290.986418,64.5203406 L294.107078,68.6752427 L292.729621,68.6752427 L288.964123,63.630623 L289.293857,63.630623 L289.586829,63.630623 L289.76989,63.630623 L289.916564,63.630623 L290.034353,63.630623 L290.136387,63.630623 L290.217038,63.630623 C290.422231,63.630623 290.573406,63.6178213 290.671314,63.593724 C291.056942,63.5496711 291.403932,63.4608123 291.711534,63.3290301 C292.160558,63.1230735 292.512424,62.817339 292.766384,62.4133326 C293.020343,62.0093263 293.147135,61.5612671 293.147135,61.0717906 C293.147135,60.6835981 293.054479,60.3093369 292.868793,59.9459947 C292.683481,59.5837821 292.430647,59.2931084 292.110666,59.0751031 C291.790685,58.8570978 291.391553,58.7057366 290.912894,58.6229022 C290.624799,58.5788493 290.190404,58.5566346 289.608962,58.5566346 L287.850379,58.5566346 L287.850379,68.6752427 L286.744137,68.6752427 Z" id="Fill-57"></path>
                            <path d="M307.807521,68.6752427 L307.807521,57.5490661 L310.44502,57.5490661 C310.664843,57.5490661 310.884666,57.5517017 311.104489,57.5565965 C311.324312,57.566386 311.502496,57.5739164 311.639416,57.5780582 C311.810098,57.5780582 311.970276,57.5897303 312.1192,57.6115685 C312.268125,57.6337832 312.442558,57.6710587 312.643249,57.7256542 C312.984987,57.7990756 313.301967,57.9195621 313.595315,58.0859841 C314.151999,58.3996256 314.579641,58.8288588 314.87749,59.3729307 C315.175339,59.9170026 315.324263,60.5175526 315.324263,61.1745806 C315.324263,62.086513 315.003157,62.8719344 314.360944,63.5312216 C313.718731,64.1908852 312.948225,64.5203406 312.049802,64.5203406 L315.170462,68.6752427 L313.793005,68.6752427 L310.027507,63.630623 L310.357241,63.630623 L310.650213,63.630623 L310.833274,63.630623 L310.979948,63.630623 L311.097737,63.630623 L311.19977,63.630623 L311.280422,63.630623 C311.485615,63.630623 311.63679,63.6178213 311.734698,63.593724 C312.120326,63.5496711 312.467316,63.4608123 312.774918,63.3290301 C313.223942,63.1230735 313.575808,62.817339 313.829767,62.4133326 C314.083727,62.0093263 314.210519,61.5612671 314.210519,61.0717906 C314.210519,60.6835981 314.117863,60.3093369 313.932176,59.9459947 C313.746865,59.5837821 313.494031,59.2931084 313.17405,59.0751031 C312.854069,58.8570978 312.454937,58.7057366 311.976278,58.6229022 C311.688182,58.5788493 311.253788,58.5566346 310.672346,58.5566346 L308.913762,58.5566346 L308.913762,68.6752427 L307.807521,68.6752427 Z" id="Fill-59"></path>
                            <polygon id="Fill-61" points="320.815221 68.6752427 320.815221 57.5490661 326.873855 57.5490661 326.873855 58.5566346 321.921463 58.5566346 321.921463 62.5643173 326.712927 62.5643173 326.712927 63.5711327 321.921463 63.5711327 321.921463 67.6676742 326.873855 67.6676742 326.873855 68.6752427"></polygon>
                            <path d="M335.02452,63.9319898 L339.317443,63.9319898 L337.185987,58.8286329 L335.02452,63.9319898 Z M331.786071,68.6753933 L336.570407,57.5492167 L337.801191,57.5492167 L342.555892,68.6753933 L341.354369,68.6753933 L339.749962,64.9395583 L334.592377,64.9395583 L332.980467,68.6753933 L331.786071,68.6753933 Z" id="Fill-63"></path>
                            <polygon id="Fill-65" points="347.768883 68.6752427 347.768883 57.5490661 348.875125 57.5490661 348.875125 67.6676742 353.468523 67.6676742 353.468523 68.6752427"></polygon>
                        </g>
                        <g id="icon" transform="translate(146.124031, 0.000000)">
                            <g id="Group-70">
                                <mask id="mask-2" fill="white">
                                    <use xlink:href="#path-1"></use>
                                </mask>
                                <g id="Clip-69"></g>
                                <path d="M10.054556,9.88328596 C3.43349125,16.352001 0.123894648,24.1645988 0.123894648,33.3199637 L0.123894648,33.3199637 C0.123894648,38.0650271 0.999766177,42.5314942 2.75338075,46.7197371 L2.75338075,46.7197371 C4.50624672,50.9090957 7.07996152,54.6346233 10.4748995,57.8959477 L10.4748995,57.8959477 C13.5329637,60.824742 17.179434,63.1319951 21.413936,64.818451 L21.413936,64.818451 C25.6469407,66.5049069 29.8713365,67.3485067 34.0871232,67.3485067 L34.0871232,67.3485067 C41.2116269,67.3485067 47.73949,65.2447144 53.6699637,61.0375018 L53.6699637,61.0375018 C55.0339277,60.0707839 56.2938352,59.0393454 57.4504348,57.9439302 L57.4504348,57.9439302 C62.4724725,53.1869642 59.0861436,44.7736548 52.1472947,44.7736548 L52.1472947,44.7736548 L52.1203448,44.7736548 C49.9856887,44.7736548 47.9423628,45.6522187 46.4953032,47.211465 L46.4953032,47.211465 C45.2949101,48.5040178 43.9388064,49.5908779 42.4243721,50.4731614 L42.4243721,50.4731614 C40.0363122,51.8627951 37.4064517,52.5579839 34.5347909,52.5579839 L34.5347909,52.5579839 C28.9393193,52.5579839 24.3511,50.7789106 20.7705073,47.2200201 L20.7705073,47.2200201 C17.1895402,43.6615015 15.3984952,39.102045 15.3984952,33.5416505 L15.3984952,33.5416505 C15.3984952,28.2044306 17.1139308,23.7751592 20.5462991,20.2530925 L20.5462991,20.2530925 C23.9779189,16.7321416 28.3801091,14.9709223 33.7513725,14.9709223 L33.7513725,14.9709223 C39.112904,14.9709223 43.3679927,16.8095088 46.5151413,20.485938 L46.5151413,20.485938 C47.9341281,22.1433811 49.9782026,23.1443191 52.1678814,23.1443191 L52.1678814,23.1443191 L52.4459894,23.1443191 C59.2830275,23.1443191 62.7614353,14.8954149 57.8973539,10.1209669 L57.8973539,10.1209669 C56.608625,8.8551951 55.1810292,7.67348573 53.6145667,6.57509488 L53.6145667,6.57509488 C47.533997,2.31246053 40.9877931,0.180771404 33.9752063,0.180771404 L33.9752063,0.180771404 C24.6490461,0.180771404 16.675995,3.41531488 10.054556,9.88328596" id="Fill-68" fill="#FFFFFF" mask="url(#mask-2)"></path>
                            </g>
                            <g id="Group-73" transform="translate(23.955461, 26.037034)">
                                <mask id="mask-4" fill="white">
                                    <use xlink:href="#path-3"></use>
                                </mask>
                                <g id="Clip-72"></g>
                                <path d="M6.62069043,6.53529541 C5.25710069,7.50238523 3.99756749,8.53382371 2.84096791,9.62923891 L2.84096791,9.62923891 C-2.18106983,14.3862049 1.20488481,22.7991424 8.1437337,22.7991424 L8.1437337,22.7991424 L8.1714322,22.7991424 C10.3053397,22.7991424 12.3486656,21.9205785 13.7960995,20.3613322 L13.7960995,20.3613322 C14.995744,19.0687794 16.3525963,17.9819193 17.8670306,17.0996358 L17.8670306,17.0996358 C20.2547163,15.7092582 22.8845767,15.0148133 25.7558632,15.0148133 L25.7558632,15.0148133 C31.3513348,15.0148133 35.9395541,16.7942586 39.5205211,20.3524052 L39.5205211,20.3524052 C43.1018625,23.9112957 44.8925332,28.4707522 44.8925332,34.0311467 L44.8925332,34.0311467 C44.8925332,39.3687386 43.1770976,43.797638 39.7451036,47.3197047 L39.7451036,47.3197047 C36.3134839,50.8406555 31.9112937,52.6018749 26.5396559,52.6018749 L26.5396559,52.6018749 C21.1781244,52.6018749 16.9230357,50.7636603 13.7758871,47.0864873 L13.7758871,47.0864873 C12.3569003,45.429788 10.3128258,44.4284781 8.12314697,44.4284781 L8.12314697,44.4284781 L7.84503905,44.4284781 C1.00837517,44.4284781 -2.47078118,52.6773823 2.39367454,57.4525742 L2.39367454,57.4525742 C3.68240346,58.7176021 5.1103735,59.8996834 6.67646173,60.9980743 L6.67646173,60.9980743 C12.7570314,65.2607086 19.3036096,67.3923977 26.3154478,67.3923977 L26.3154478,67.3923977 C35.6419824,67.3923977 43.6150334,64.1574823 50.2360981,57.6895112 L50.2360981,57.6895112 C56.8575372,51.2211682 60.1675081,43.4081983 60.1675081,34.2532054 L60.1675081,34.2532054 C60.1675081,29.5077701 59.2920108,25.041303 57.538022,20.8530601 L57.538022,20.8530601 C55.7847817,16.6633295 53.2110669,12.9381739 49.8165033,9.67722144 L49.8165033,9.67722144 C46.7580647,6.74805517 43.1115944,4.44080204 38.8774668,2.75434619 L38.8774668,2.75434619 C34.644462,1.06789033 30.4193176,0.224662403 26.2042795,0.224662403 L26.2042795,0.224662403 C19.0790272,0.224662403 12.5515384,2.32808275 6.62069043,6.53529541" id="Fill-71" fill="#FFFFFF" mask="url(#mask-4)"></path>
                            </g>
                        </g>
                    </g>
                </g>
            </g>
            <g id="logo_circle" transform="translate(222.000000, 109.000000)">
                <rect id="circle-copy" fill="#0046FF" transform="translate(256.000000, 256.000000) scale(-1, -1) translate(-256.000000, -256.000000) " x="0" y="0" width="512" height="512" rx="256"></rect>
                <g id="Group" transform="translate(56.000000, 159.000000)" fill="#FFFFFF">
                    <g id="Group-9" transform="translate(1.133144, 1.129568)">
                        <path d="M48.5824893,13.2810604 L78.9884337,46.0250039 C57.9892635,53.2199273 42.9063967,72.944346 42.9063967,96.1693942 C42.9063967,125.477263 66.9185816,149.236355 96.5386511,149.236355 C118.406732,149.236355 137.202487,136.278451 145.55352,117.707215 L145.55352,117.707215 L175.959464,150.451159 C158.536766,175.3605 129.471257,191.689924 96.5386511,191.689924 C43.2207466,191.689924 0.000593113126,148.925319 0.000593113126,96.1693942 C0.000593113126,60.6936099 19.561464,29.7542658 48.5824893,13.2810604 L48.5824893,13.2810604 Z M96.5386511,0.647103637 C125.366915,0.647103637 151.226647,13.1677961 168.916246,32.9919813 L168.916246,32.9919813 L206.55817,73.5265127 C206.561136,73.5118412 206.564102,73.4971696 206.567067,73.4795638 L206.567067,73.4795638 L258.808471,129.739052 C259.072407,130.058892 259.357101,130.36406 259.629933,130.675096 L259.629933,130.675096 L262.224803,133.474426 C271.945927,143.198723 285.427388,149.237529 300.341218,149.237529 C316.257409,149.237529 330.54847,142.371248 340.367457,131.476162 L340.367457,131.476162 L394.139093,73.5734616 C395.915467,80.8212025 396.882242,88.3799801 396.882242,96.1705679 C396.882242,148.923558 353.659122,191.688164 300.341218,191.688164 C271.343917,191.688164 245.350735,179.020756 227.655204,158.991169 L227.655204,158.991169 L190.32763,118.797017 C190.321699,118.814623 81.6099937,1.78854947 81.6099937,1.78854947 C86.4764869,1.04030092 91.4616028,0.647103637 96.5386511,0.647103637 Z M300.341515,0.647690499 C333.300811,0.647690499 362.390044,17.0035236 379.806811,41.945142 L379.806811,41.945142 L349.389005,74.7037571 C341.055765,56.0914411 322.239251,43.1012594 300.341515,43.1012594 C278.476399,43.1012594 259.680644,56.0562294 251.329611,74.6245308 L251.329611,74.6245308 L220.923667,41.8805872 C238.346365,16.9741805 267.411874,0.647690499 300.341515,0.647690499 Z" id="Combined-Shape"></path>
                    </g>
                </g>
            </g>
        </g>
    </g>
</svg>