<?xml version="1.0" encoding="UTF-8"?>
<svg width="40px" height="40px" viewBox="0 0 40 40" version="1.1" xmlns="http://www.w3.org/2000/svg" xmlns:xlink="http://www.w3.org/1999/xlink">
    <title>POLYGON</title>
    <g id="Element" stroke="none" stroke-width="1" fill="none" fill-rule="evenodd">
        <g id="ETH_POLYGON" fill-rule="nonzero">
            <circle id="Oval" fill="#8046E3" cx="20" cy="20" r="20"></circle>
            <g id="polygon" transform="translate(7.000000, 8.000000)" fill="#FFFFFF">
                <path d="M11.6523448,6.15111563 C11.6348647,6.03284183 11.6024246,5.91867013 11.5617445,5.80645855 C11.4985242,5.63196782 11.4029839,5.4774824 11.2898434,5.33194885 C11.167843,5.17483646 11.0123424,5.05908859 10.8483617,4.95267653 C10.8216416,4.94990811 10.7994815,4.93661166 10.7769414,4.92291105 C10.3858999,4.68571682 9.99629845,4.44603709 9.60591695,4.20779207 C9.07241489,3.88225118 8.53969284,3.5551139 8.00541079,3.23074503 C7.78446994,3.09654782 7.54268901,3.02410436 7.28616802,2.99526843 C6.98936688,2.96194646 6.70638579,3.00658456 6.43474475,3.12932419 C6.32356432,3.17951932 6.22084393,3.24602181 6.11592352,3.30791702 C5.57564144,3.62636512 5.03457936,3.9430956 4.49403728,4.26113956 C4.13753591,4.47093258 3.77635452,4.67320846 3.42495317,4.89130671 C2.95831138,5.18077743 2.67221028,5.59640283 2.60755003,6.15531876 C2.60103,6.21222274 2.59750999,6.26872258 2.59750999,6.3257276 C2.59764999,7.47795242 2.58930996,8.63015703 2.60103,9.7822404 C2.60703003,10.3714472 2.86785103,10.8401574 3.36421294,11.1558371 C3.89353498,11.4924516 4.43355705,11.8118293 4.96849911,12.1391888 C5.39016073,12.3974391 5.81196235,12.6552853 6.23402398,12.9127273 C6.54984519,13.1053037 6.89616652,13.1865373 7.26282793,13.1659258 C7.54332901,13.1501641 7.79840999,13.0529666 8.03917092,12.9044423 C8.69533344,12.4994864 9.35683599,12.1036238 10.0159785,11.7037198 C10.0473986,11.6847248 10.0776388,11.6626988 10.1158189,11.6590615 C10.3020996,11.5450918 10.4881003,11.4309404 10.6744811,11.3174355 C10.9948823,11.1223939 11.3142235,10.9257558 11.6364448,10.7338868 C11.8075854,10.6319405 11.9840661,10.5391078 12.1580868,10.4420316 C12.5268282,10.2363407 12.8959696,10.0312762 13.264151,9.824393 C13.782153,9.53332589 14.303355,9.24821997 14.811157,8.93872373 C15.3145589,8.63173321 15.8261609,8.33779666 16.3329628,8.03608026 C16.7999646,7.75806712 17.2643664,7.47558816 17.7319682,7.1988885 C17.9221689,7.08629298 18.1077696,6.96353314 18.3233705,6.90032446 C18.4315709,6.86859887 18.5409713,6.8448754 18.6511717,6.82315247 C18.6723718,6.81222028 18.6973719,6.82577943 18.718372,6.81288712 C18.7393721,6.81183634 18.7603722,6.81078555 18.7813722,6.80971456 C18.8591725,6.80314716 18.9371728,6.80260156 19.0149731,6.80997726 C19.3551744,6.83236704 19.6463756,6.98382135 19.9317767,7.15647321 C20.275778,7.36469005 20.6245793,7.56486436 20.9711807,7.76859517 C21.5245828,8.09389358 22.0773849,8.41998007 22.631387,8.74461164 C23.1103889,9.02551443 23.5923907,9.30154724 24.0695926,9.58562259 C24.4781941,9.82873759 24.9029958,10.0455022 25.2927973,10.3182412 C25.6751988,10.5857263 25.9033996,10.9622504 25.9759999,11.4302937 C25.9795999,11.4538555 25.9857999,11.4771748 25.9908,11.5006154 C26.0004,11.5228637 25.9888,11.5481229 26,11.570149 C26,11.6226882 26,11.6754294 26,11.7279686 C26,13.867324 26,16.0066793 26,18.1462367 C26,18.6687996 25.8113993,19.1077039 25.4273978,19.4583019 C25.2821972,19.5910644 25.1071966,19.6785624 24.9397959,19.7777806 C24.6281947,19.962274 24.3167935,20.1469695 24.0045923,20.3302504 C23.7537914,20.4773601 23.5011904,20.6218429 23.2501894,20.7691547 C22.878388,20.9873944 22.5081866,21.208059 22.1361851,21.4258946 C21.7177835,21.6710101 21.2975819,21.9132966 20.8791803,22.15821 C20.5111789,22.3740248 20.1445775,22.5926687 19.7765761,22.8088877 C19.6799757,22.8656704 19.5789753,22.913764 19.4741749,22.9531684 C19.3969746,22.9820649 19.3183743,22.998635 19.234174,22.9972205 C18.9973731,22.993381 18.7601722,22.9861064 18.5241712,22.9990391 C18.3275705,23.009749 18.1669699,22.9293237 18.0069693,22.8379863 C17.8001685,22.7201773 17.5957677,22.5979226 17.3903669,22.4772846 C17.1901661,22.3596776 16.9901653,22.2414644 16.7901646,22.1236554 C16.5903638,22.0058464 16.390563,21.8878353 16.1903623,21.7706325 C15.9883615,21.6522172 15.7853607,21.5350144 15.5829599,21.4170033 C15.3773591,21.2967694 15.1719584,21.1765355 14.9667576,21.0558974 C14.7665568,20.9382905 14.566956,20.8196732 14.3665553,20.7022683 C14.1297543,20.5634436 13.8921534,20.4258313 13.6553525,20.2868045 C13.4057516,20.1405031 13.1565506,19.9935955 12.9074296,19.8464857 C12.748029,19.7523193 12.5830084,19.6674483 12.4340278,19.5563077 C12.1638068,19.354436 11.966466,19.096994 11.8460256,18.7785257 C11.7995054,18.6552607 11.7700453,18.5295708 11.7540052,18.3996373 C11.7426652,18.3735698 11.7575252,18.3442691 11.7439652,18.3184036 C11.7437052,17.5483004 11.7442252,16.777995 11.7420252,16.0078918 C11.7418852,15.945451 11.7615652,15.9131192 11.8154054,15.8817977 C12.2451471,15.6326407 12.6722887,15.3786339 13.1009504,15.1274562 C13.4489517,14.9237658 13.7979531,14.7212879 14.1465544,14.5186078 C14.2011546,14.4866802 14.2561548,14.4555608 14.3255551,14.4155502 C14.3255551,14.6849146 14.3255551,14.9423566 14.3255551,15.1997986 C14.3489552,15.2284931 14.3403552,15.2626436 14.3405552,15.2945712 C14.3411552,15.7468124 14.3363551,16.1988515 14.3423552,16.6508906 C14.3475552,17.0348308 14.4811557,17.3741127 14.7177566,17.6745965 C14.8857573,17.8879864 15.1107581,18.0229717 15.338759,18.1559363 C15.7505606,18.396202 16.1611622,18.6388927 16.5725637,18.8799667 C17.0701657,19.1717613 17.5643676,19.4698202 18.0665695,19.7537338 C18.2723703,19.8701284 18.5005712,19.9271132 18.7373721,19.9521703 C18.989573,19.978642 19.230174,19.9398438 19.4665749,19.8561853 C19.5491752,19.8270866 19.6267755,19.7874802 19.7013758,19.7426198 C20.3345782,19.3631252 20.9665806,18.9816098 21.5989831,18.6007007 C21.9291843,18.4018601 22.2661856,18.2141335 22.5865869,17.9999353 C23.0085885,17.7178403 23.2525894,17.3169259 23.3207897,16.8101248 C23.3323897,16.7238393 23.3393898,16.6361392 23.3391898,16.547833 C23.3381898,15.4352146 23.3411898,14.3225963 23.3371898,13.2099779 C23.3357898,12.7415708 23.1691891,12.3360087 22.8425879,12.0011724 C22.7053873,11.8607311 22.5367867,11.7639378 22.368986,11.6663361 C21.8723841,11.3770877 21.3777822,11.0842019 20.8819803,10.7933975 C20.4669787,10.55004 20.0587771,10.2933659 19.6353755,10.0659116 C19.1115735,9.78474612 18.5691714,9.7515656 18.0297693,10.0308922 C17.7999685,10.1499339 17.5815676,10.2909814 17.3583668,10.4221475 C16.6769641,10.8226376 15.9953615,11.2230064 15.3143589,11.6241027 C14.7083566,11.980965 14.1009542,12.3354025 13.4953519,12.6930731 C13.4685518,12.7088349 13.4393517,12.7142909 13.4113516,12.7243946 C13.2319509,12.8276543 13.0523502,12.9301057 12.8734095,13.0341737 C12.6274486,13.1772419 12.3818876,13.3211185 12.1363067,13.4651971 C11.7292451,13.7038463 11.3221635,13.9428996 10.915242,14.1819529 C10.5216005,14.4131253 10.128079,14.6447019 9.73443744,14.8760764 C9.359696,15.0963368 8.98481456,15.3165973 8.61007312,15.5370598 C8.38185224,15.6714389 8.15725137,15.8126885 7.92447048,15.9385805 C7.73820976,16.0392132 7.53524898,16.0986229 7.32408817,16.1240842 C7.30218809,16.1339858 7.27730799,16.1220635 7.25566791,16.1337837 C7.21330774,16.1347941 7.17092758,16.1362086 7.12856742,16.1374211 C7.10720734,16.1432812 7.08582725,16.1436854 7.06456717,16.137219 C7.02664703,16.1360066 6.98858688,16.1347941 6.95064673,16.1337837 C6.92902665,16.1218614 6.90398655,16.1341879 6.88208647,16.1238821 C6.82616625,16.1139805 6.77012604,16.104281 6.71420582,16.0943794 C6.6296055,16.0951877 6.55466521,16.0590164 6.47920492,16.0278971 C6.2671241,15.9406012 6.07812338,15.8098594 5.88104262,15.6948795 C5.21928007,15.3093226 4.55933754,14.9205326 3.89849499,14.5331572 C3.42351317,14.2546995 2.94867134,13.9760397 2.47394952,13.6971778 C1.92610741,13.3752743 1.37448529,13.0598371 0.830023192,12.7322754 C0.414481594,12.4821081 0.138420532,12.1199918 0.0268401032,11.6380458 C0.0109400421,11.5693407 0.00678002608,11.4996859 0.00678002608,11.4295056 C0.00352001354,11.4002655 0.0136800526,11.3699747 0,11.3414014 C0,9.12915808 0,6.91679347 0,4.7045501 C0.0136800526,4.68361526 0.003640014,4.66029594 0.00678002608,4.63831031 C0.0114600441,4.36965319 0.113400436,4.13470198 0.256260986,3.9154317 C0.394421517,3.70353711 0.586022254,3.55444706 0.803823092,3.43051519 C1.21820469,3.1947961 1.62578625,2.94681113 2.03636783,2.70448423 C2.65513021,2.339155 3.27349259,1.97317914 3.89197497,1.60744576 C4.7070181,1.12543912 5.52272124,0.643836627 6.33738437,0.160758995 C6.45208482,0.0926803312 6.5773453,0.0479007765 6.70442579,0.00892074003 C6.73180589,0.000494262469 6.760086,0.000231566526 6.78836611,0.000231566526 C7.0707072,0.000231566526 7.35316828,-0.000435277023 7.63548937,0.000494262469 C7.77626991,0.00101965436 7.89553037,0.069502466 8.01115081,0.137459886 C8.51245274,0.431800586 9.01205466,0.729293639 9.51167658,1.02666545 C9.80351771,1.20036809 10.0960188,1.37330285 10.38838,1.5462174 C10.40924,1.55846307 10.4301001,1.5700419 10.4401202,1.59400785 C10.660281,1.72662889 10.8797818,1.86030071 11.1005827,1.99174972 C11.6167447,2.29938688 12.1330467,2.60664009 12.6501287,2.91270107 C12.9365098,3.08218037 13.2289509,3.24167722 13.5061519,3.4264333 C13.8567533,3.66033373 14.0853542,3.9882591 14.1987546,4.39677149 C14.2207547,4.47606525 14.2311547,4.55863261 14.2469548,4.63962379 C14.2581548,4.66623691 14.2441548,4.69586093 14.2567548,4.72221135 C14.2565548,4.76816294 14.2561548,4.81413473 14.2561548,4.86008631 C14.2561548,5.60127281 14.2557548,6.34245931 14.2569548,7.08378726 C14.2571548,7.13264871 14.2447548,7.15859498 14.1993546,7.18439981 C13.9651537,7.31766748 13.7347528,7.45792691 13.5021519,7.5939832 C13.269351,7.73014053 13.0351501,7.86342841 12.8025092,7.99946449 C12.4312878,8.2166332 12.0608464,8.43499416 11.690005,8.65295096 C11.6798449,8.65571937 11.6729249,8.65175872 11.6720249,8.64135192 C11.6702049,8.62173056 11.6712449,8.60198795 11.6712449,8.58222513 C11.6712449,7.83497641 11.6712449,7.0877277 11.6709849,6.34047899 C11.6709849,6.31677573 11.6764449,6.29228438 11.6653649,6.26924797 C11.6644649,6.25237481 11.6634249,6.23552185 11.6625049,6.21879014 C11.6516848,6.1973299 11.6655049,6.17205047 11.6523448,6.15111563 Z" id="Path"></path>
            </g>
        </g>
    </g>
</svg>