<?xml version="1.0" encoding="UTF-8"?>
<svg width="40px" height="40px" viewBox="0 0 40 40" version="1.1" xmlns="http://www.w3.org/2000/svg" xmlns:xlink="http://www.w3.org/1999/xlink">
    <title>BSC</title>
    <g id="Element" stroke="none" stroke-width="1" fill="none" fill-rule="evenodd">
        <g id="ETH_POLYGON-Copy" fill-rule="nonzero">
            <g id="bnb">
                <circle id="Oval" fill="#F0B90B" cx="20" cy="20" r="20"></circle>
                <path d="M12.5409833,19.9996667 L9.48098333,23.081 L6.39973333,19.9996667 L9.48098333,16.9185 L12.5409833,19.9996667 Z M19.9996667,12.5409833 L25.2696667,17.811 L28.351,14.7297333 L23.081,9.48098333 L19.9996667,6.39973333 L16.9185,9.48098333 L11.6697333,14.7297333 L14.7509833,17.811 L19.9996667,12.5409833 Z M30.5185,16.9185 L27.4585,19.9996667 L30.5396667,23.081 L33.5996667,19.9996667 L30.5185,16.9185 Z M19.9996667,27.4585 L14.7297333,22.1885 L11.6697333,25.2696667 L16.9396667,30.5396667 L19.9996667,33.5996667 L23.081,30.5185 L28.351,25.2485 L25.2696667,22.1885 L19.9996667,27.4585 Z M19.9996667,23.081 L23.081,19.9996667 L19.9996667,16.9185 L16.9185,19.9996667 L19.9996667,23.081 Z" id="Shape" fill="#FFFFFF"></path>
            </g>
        </g>
    </g>
</svg>