<?xml version="1.0" encoding="UTF-8"?>
<svg width="40px" height="40px" viewBox="0 0 40 40" version="1.1" xmlns="http://www.w3.org/2000/svg" xmlns:xlink="http://www.w3.org/1999/xlink">
    <title>USDT</title>
    <g id="Element" stroke="none" stroke-width="1" fill="none" fill-rule="evenodd">
        <g id="tether-usdt-logo">
            <circle id="Oval" fill="#50AF95" fill-rule="nonzero" cx="20" cy="20" r="20"></circle>
            <path d="M22.9505882,21.3023529 L22.9505882,21.3023529 C22.8094118,21.3129412 22.08,21.3564706 20.4529412,21.3564706 C19.1588235,21.3564706 18.24,21.3176471 17.9176471,21.3023529 L17.9176471,21.3023529 C12.9164706,21.0823529 9.18352941,20.2117647 9.18352941,19.1694118 C9.18352941,18.1270588 12.9164706,17.2576471 17.9176471,17.0341176 L17.9176471,20.4352941 C18.2447059,20.4588235 19.1811765,20.5141176 20.4752941,20.5141176 C22.0282353,20.5141176 22.8058824,20.4494118 22.9458824,20.4364706 L22.9458824,17.0364706 C27.9364706,17.2588235 31.6611765,18.1294118 31.6611765,19.1694118 C31.6611765,20.2094118 27.9376471,21.08 22.9458824,21.3011765 L22.9458824,21.3011765 L22.9505882,21.3023529 Z M22.9505882,16.6847059 L22.9505882,13.6411765 L29.9152941,13.6411765 L29.9152941,9 L10.9529412,9 L10.9529412,13.6411765 L17.9164706,13.6411765 L17.9164706,16.6835294 C12.2564706,16.9435294 8,18.0647059 8,19.4082353 C8,20.7517647 12.2564706,21.8717647 17.9164706,22.1329412 L17.9164706,31.8858824 L22.9494118,31.8858824 L22.9494118,22.1294118 C28.5964706,21.8694118 32.8458824,20.7494118 32.8458824,19.4070588 C32.8458824,18.0647059 28.6,16.9447059 22.9494118,16.6835294 L22.9494118,16.6835294 L22.9505882,16.6847059 Z" id="Shape" fill="#FFFFFF"></path>
        </g>
    </g>
</svg>